<svg version="1.1" id="Layer_1" xmlns="http://www.w3.org/2000/svg" xmlns:xlink="http://www.w3.org/1999/xlink" x="0px" y="0px"
	 width="100%" viewBox="0 0 200 100" enable-background="new 0 0 200 100" xml:space="preserve">
<path fill="#000000" opacity="1.000000" stroke="none" 
	d="
M133.000000,101.000000 
	C88.666679,101.000000 44.833359,101.000000 1.000029,101.000000 
	C1.000020,67.666687 1.000020,34.333378 1.000010,1.000052 
	C67.666626,1.000035 134.333252,1.000035 200.999908,1.000017 
	C200.999939,34.333279 200.999939,67.666557 200.999969,100.999924 
	C178.500000,101.000000 156.000000,101.000000 133.000000,101.000000 
M108.279617,70.980904 
	C109.171036,70.933357 110.062454,70.885811 111.821068,70.996254 
	C115.824562,70.613487 119.828056,70.230713 123.986435,69.103706 
	C124.661545,69.102676 125.440926,68.887100 125.986641,69.152313 
	C126.750404,69.523499 127.340042,70.252983 128.864731,71.007011 
	C130.912811,70.956657 132.960876,70.906303 135.896973,71.012444 
	C138.598755,70.953583 141.300522,70.894722 144.788177,71.000908 
	C148.580841,70.666779 152.373489,70.332649 156.397186,70.826790 
	C160.620865,70.828331 164.844528,70.829872 169.750854,70.972588 
	C170.777740,70.081406 171.804626,69.190224 172.979568,67.460327 
	C172.634094,65.972557 172.288620,64.484787 171.955002,63.043293 
	C171.955002,63.043293 172.001114,63.055771 171.676331,62.232056 
	C162.418747,62.157135 153.161179,62.061356 143.903534,62.052746 
	C143.265030,62.052151 142.625931,62.701786 142.036636,63.041805 
	C142.036636,63.041805 142.049179,62.993347 141.416321,63.120785 
	C141.333252,63.722893 141.250183,64.324997 140.988220,65.527748 
	C140.849548,65.924438 140.710892,66.321136 140.572220,66.717827 
	C140.028610,66.227829 139.484985,65.737831 139.675278,64.797905 
	C139.242188,63.869961 138.818924,62.136898 138.374557,62.131474 
	C126.333084,61.984364 114.289452,62.014076 102.006935,62.014076 
	C102.006935,64.700867 101.798180,66.865105 102.120209,68.947250 
	C102.232857,69.675583 103.652344,70.201797 105.046753,70.888657 
	C105.829613,70.866295 106.612480,70.843925 108.279617,70.980904 
M96.702431,69.764572 
	C96.746368,67.508904 96.790298,65.253227 96.569832,62.173553 
	C89.481270,62.118046 82.390892,61.967819 75.305992,62.103558 
	C74.171906,62.125286 73.133690,63.773281 71.918091,64.023804 
	C71.001190,64.212769 69.871742,63.370411 68.566116,62.167068 
	C63.764931,62.112373 58.958080,61.891594 54.164341,62.055153 
	C50.278328,62.187737 46.408077,62.782253 41.673115,63.007355 
	C37.484711,63.007355 33.296310,63.007355 29.970627,63.007355 
	C29.246103,66.136047 28.729288,68.367798 28.212471,70.599548 
	C28.507948,70.981743 28.803423,71.363937 29.098900,71.746140 
	C31.046124,70.380798 32.993347,69.015465 34.940571,67.650124 
	C34.223141,68.102180 33.505707,68.554245 32.788273,69.006302 
	C34.376408,69.671707 35.965637,70.908905 37.552490,70.905861 
	C45.399357,70.890823 53.245594,70.547859 61.558567,70.940392 
	C67.537331,69.381599 73.502823,71.089699 79.475288,71.009857 
	C81.967392,70.976540 84.458885,70.896973 87.832565,70.985474 
	C90.568253,70.698700 93.303947,70.411926 96.702431,69.764572 
M95.040413,47.271412 
	C97.973717,42.285458 95.093323,38.110165 88.876213,37.832104 
	C78.965599,37.388859 69.108871,40.371273 59.217556,38.032253 
	C58.440475,37.848499 57.202934,37.741707 56.798672,38.175827 
	C55.060989,40.041866 53.786659,38.800270 51.993290,38.176945 
	C47.311646,36.549744 43.729630,38.206951 44.125027,41.517620 
	C44.289131,42.891651 45.781509,44.107040 46.636459,45.346180 
	C44.509571,45.346180 42.345112,45.346180 40.193180,45.346180 
	C39.984283,51.686203 42.061199,53.750015 47.990810,52.937439 
	C50.017357,52.659721 51.952663,51.716175 54.156307,51.652431 
	C54.746677,51.794971 55.337051,51.937511 56.348881,52.798447 
	C67.717979,52.798447 79.087082,52.798447 89.735344,52.798447 
	C91.467628,50.627716 92.798782,48.959644 94.094948,47.186440 
	C94.094948,47.186440 94.203583,47.208229 95.040413,47.271412 
M101.562965,42.960766 
	C101.562965,42.960766 101.544922,43.033543 101.425499,43.854012 
	C100.953285,46.766747 100.481071,49.679478 100.008858,52.592209 
	C98.665161,54.353886 97.685806,56.402737 97.957909,58.269142 
	C98.097778,59.228485 100.469330,59.862465 101.832397,60.643478 
	C102.776367,58.286541 103.720337,55.929607 104.894890,52.996944 
	C104.661850,52.996944 105.654968,52.996979 106.648094,52.996937 
	C123.649925,52.996189 140.657150,53.252880 157.651520,52.896641 
	C167.601334,52.688068 157.037445,44.326229 161.766403,40.976974 
	C163.386124,39.829826 160.017441,37.506207 157.744202,38.082352 
	C152.997818,39.285301 147.716995,35.942722 143.308426,39.866646 
	C142.973373,40.164860 142.046738,39.874424 141.415680,39.751720 
	C137.394928,38.969921 133.379959,38.158394 128.648636,37.214058 
	C129.165024,41.251144 129.505051,43.909512 129.845093,46.567879 
	C128.595428,45.002338 127.515038,43.348213 127.057747,41.536785 
	C126.017586,37.416481 122.877434,38.005238 119.936447,38.016651 
	C116.584030,38.029663 117.161873,40.497135 116.949127,42.626808 
	C116.818848,43.931000 116.176537,45.184048 115.764160,46.460060 
	C115.578568,46.399914 115.392982,46.339764 115.207390,46.279613 
	C115.513397,43.643299 115.819397,41.006985 116.167244,38.010124 
	C111.496208,38.010124 107.509323,37.851181 103.549950,38.111122 
	C102.424545,38.185009 101.120911,39.296467 100.416779,40.296619 
	C100.109848,40.732609 101.107582,42.087112 101.562965,42.960766 
M119.604630,59.000107 
	C138.359070,59.000107 157.113510,59.000107 175.867935,59.000107 
	C176.095917,58.425488 176.323898,57.850868 176.551880,57.276249 
	C175.335495,56.517727 174.123901,55.107262 172.902008,55.098274 
	C153.930756,54.958801 134.958023,55.041058 115.986069,54.963375 
	C112.634178,54.949654 112.696571,56.496460 113.409744,59.000114 
	C115.335358,59.000114 116.987793,59.000114 119.604630,59.000107 
M87.986687,56.534920 
	C86.991028,56.023495 85.997482,55.070782 84.999405,55.066021 
	C66.346252,54.977066 47.692215,55.058228 29.039295,54.947414 
	C25.704721,54.927612 25.650854,56.346539 26.379868,58.997677 
	C46.232590,58.997677 65.865967,59.016399 85.498917,58.932846 
	C86.330223,58.929310 87.157486,57.976448 87.986687,56.534920 
z"/>
<path fill="#18E5FF" opacity="1.000000" stroke="none" 
	d="
M101.512810,43.024475 
	C101.107582,42.087112 100.109848,40.732609 100.416779,40.296619 
	C101.120911,39.296467 102.424545,38.185009 103.549950,38.111122 
	C107.509323,37.851181 111.496208,38.010124 116.167244,38.010124 
	C115.819397,41.006985 115.513397,43.643299 115.207390,46.279613 
	C115.392982,46.339764 115.578568,46.399914 115.764160,46.460060 
	C116.176537,45.184048 116.818848,43.931000 116.949127,42.626808 
	C117.161873,40.497135 116.584030,38.029663 119.936447,38.016651 
	C122.877434,38.005238 126.017586,37.416481 127.057747,41.536785 
	C127.515038,43.348213 128.595428,45.002338 129.845093,46.567879 
	C129.505051,43.909512 129.165024,41.251144 128.648636,37.214058 
	C133.379959,38.158394 137.394928,38.969921 141.415680,39.751720 
	C142.046738,39.874424 142.973373,40.164860 143.308426,39.866646 
	C147.716995,35.942722 152.997818,39.285301 157.744202,38.082352 
	C160.017441,37.506207 163.386124,39.829826 161.766403,40.976974 
	C157.037445,44.326229 167.601334,52.688068 157.651520,52.896641 
	C140.657150,53.252880 123.649925,52.996189 106.648094,52.996937 
	C105.654968,52.996979 104.661850,52.996944 104.894890,52.996944 
	C103.720337,55.929607 102.776367,58.286541 101.832397,60.643478 
	C100.469330,59.862465 98.097778,59.228485 97.957909,58.269142 
	C97.685806,56.402737 98.665161,54.353886 100.008858,52.592209 
	C100.481071,49.679478 100.953285,46.766747 101.925491,43.472782 
	C102.425484,45.615665 102.425484,48.139778 102.425484,50.918015 
	C103.840889,50.918015 105.272202,50.918015 106.370178,50.918015 
	C107.051735,49.520386 107.631958,48.330563 108.212173,47.140736 
	C108.720451,48.321602 109.228737,49.502464 109.935852,51.145267 
	C111.032486,51.072895 112.560539,50.972046 113.569695,50.905445 
	C113.569695,47.050945 113.569695,43.797138 113.569695,40.328491 
	C112.325890,40.328491 110.887192,40.328491 109.150986,40.328491 
	C109.336426,41.807117 109.498703,43.101105 109.660980,44.395096 
	C109.161697,44.552448 108.662407,44.709801 108.163124,44.867153 
	C107.619400,43.370094 107.075684,41.873035 105.986000,38.872726 
	C104.184990,40.544319 102.848900,41.784397 101.512810,43.024475 
M136.934708,49.191460 
	C138.368423,49.915459 139.802139,50.639454 140.999680,51.244186 
	C140.999680,48.464016 140.831787,46.815674 141.035614,45.214653 
	C141.425354,42.153267 140.199783,40.394382 137.166565,40.127163 
	C135.122345,39.947075 133.049408,40.092846 131.213440,40.092846 
	C130.145782,43.590885 134.595932,47.647301 128.504791,48.784790 
	C127.647743,47.194859 126.593529,45.677811 125.973427,44.000294 
	C124.548096,40.144432 122.137207,39.121807 119.821335,40.099140 
	C118.321365,44.331474 117.239220,47.384876 116.157066,50.438274 
	C116.378380,50.861370 116.599693,51.284466 116.821007,51.707561 
	C118.238724,50.755222 119.583351,49.652935 121.104004,48.911797 
	C121.902367,48.522694 123.850655,48.679611 123.856461,48.736145 
	C124.289589,52.952839 126.944923,50.989639 129.870209,50.643497 
	C132.072845,50.766533 134.850830,53.070133 136.191544,48.830791 
	C136.191544,48.830791 136.426788,48.624878 136.934708,49.191460 
M150.084076,44.476078 
	C150.804276,44.198566 151.524490,43.921059 152.244705,43.643543 
	C151.665329,42.582840 150.843307,40.541828 150.544769,40.615723 
	C148.040573,41.235569 144.861069,41.574547 143.374069,43.289387 
	C141.076950,45.938465 142.472809,49.047329 145.399323,50.819706 
	C147.937210,52.356728 150.420059,52.100594 152.918655,49.335331 
	C150.042160,47.880554 145.376648,50.587166 146.022858,45.420364 
	C146.111374,44.712688 148.462540,44.288006 150.084076,44.476078 
M155.236572,46.389824 
	C154.924713,47.773212 154.612854,49.156605 154.228363,50.862183 
	C156.268448,50.862183 157.964676,50.862183 159.750061,50.862183 
	C159.407547,48.909935 158.888992,47.319904 158.916153,45.739258 
	C158.945496,44.032036 159.484924,42.333572 159.840652,40.422852 
	C157.781998,40.422852 156.083694,40.422852 154.141129,40.422852 
	C154.565964,42.401600 154.903839,43.975342 155.236572,46.389824 
z"/>
<path fill="#17E5FF" opacity="1.000000" stroke="none" 
	d="
M53.929657,51.076843 
	C51.952663,51.716175 50.017357,52.659721 47.990810,52.937439 
	C42.061199,53.750015 39.984283,51.686203 40.193180,45.346180 
	C42.345112,45.346180 44.509571,45.346180 46.636459,45.346180 
	C45.781509,44.107040 44.289131,42.891651 44.125027,41.517620 
	C43.729630,38.206951 47.311646,36.549744 51.993290,38.176945 
	C53.786659,38.800270 55.060989,40.041866 56.798672,38.175827 
	C57.202934,37.741707 58.440475,37.848499 59.217556,38.032253 
	C69.108871,40.371273 78.965599,37.388859 88.876213,37.832104 
	C95.093323,38.110165 97.973717,42.285458 94.503670,46.874645 
	C95.109100,40.460514 92.350952,38.843544 84.537758,40.679935 
	C84.537758,44.079266 84.537758,47.395386 84.537758,51.525776 
	C86.287659,51.025105 89.435204,50.562244 89.442757,50.052780 
	C89.500572,46.157413 92.207390,47.508389 94.129936,47.291573 
	C92.798782,48.959644 91.467628,50.627716 89.735344,52.798447 
	C79.087082,52.798447 67.717979,52.798447 56.295036,52.248550 
	C56.241192,51.698658 56.551636,51.314556 56.911709,51.395401 
	C59.786827,50.456985 63.126801,50.059650 64.528214,48.200806 
	C65.469521,46.952255 64.403221,42.685600 62.885342,41.505646 
	C61.330090,40.296627 57.657055,40.331089 55.750439,41.366753 
	C51.920979,43.446877 52.466892,46.940617 54.577019,50.412979 
	C54.216995,50.781425 54.073326,50.929138 53.929657,51.076843 
M66.455627,42.909821 
	C66.578232,44.477531 67.180702,46.202789 66.728012,47.581623 
	C65.634979,50.910839 67.917061,51.417995 69.979515,51.628662 
	C71.487999,51.782749 74.096481,51.361374 74.439262,50.494488 
	C75.048729,48.953144 73.890678,46.792492 74.250565,45.051872 
	C74.661484,43.064388 75.836739,40.857334 72.886711,40.565407 
	C70.930809,40.371861 68.831604,41.626423 66.455627,42.909821 
M42.904770,50.525249 
	C45.203625,50.555836 48.940090,51.441944 49.527859,50.454266 
	C51.194069,47.654385 51.572544,44.088169 52.710888,39.892113 
	C49.360546,40.200123 47.600895,40.361889 45.345100,40.569271 
	C49.051590,45.260468 49.066029,45.382732 46.663612,49.008183 
	C45.414978,48.105461 44.175209,47.209152 41.761200,45.463909 
	C42.093605,47.773819 42.249512,48.857235 42.904770,50.525249 
M77.821739,48.097576 
	C76.248756,54.375004 80.269722,50.204643 81.619873,50.665440 
	C81.619873,47.150036 81.619873,43.971745 81.619873,40.556805 
	C80.336372,40.556805 78.728966,40.556805 77.255638,40.556805 
	C77.528618,43.085285 77.753761,45.170700 77.821739,48.097576 
z"/>
<path fill="#DFFBFF" opacity="1.000000" stroke="none" 
	d="
M61.092052,70.320534 
	C53.245594,70.547859 45.399357,70.890823 37.552490,70.905861 
	C35.965637,70.908905 34.376408,69.671707 32.788273,69.006302 
	C33.505707,68.554245 34.223141,68.102180 34.940571,67.650124 
	C32.993347,69.015465 31.046124,70.380798 29.098900,71.746140 
	C28.803423,71.363937 28.507948,70.981743 28.212471,70.599548 
	C28.729288,68.367798 29.246103,66.136047 29.970627,63.007355 
	C33.296310,63.007355 37.484711,63.007355 42.261765,63.394569 
	C44.570175,63.518921 46.287418,63.050667 48.010139,63.029568 
	C54.657494,62.948147 61.306595,63.009556 68.039185,63.404518 
	C67.304100,65.826332 66.484886,67.861359 65.494934,70.320534 
	C64.315163,70.320534 62.703606,70.320534 61.092052,70.320534 
M53.532269,65.787506 
	C53.406372,66.164055 53.260384,66.535995 53.172047,66.921158 
	C53.155014,66.995430 53.363827,67.121506 53.468460,67.223679 
	C53.594116,66.847221 53.719772,66.470764 53.532269,65.787506 
z"/>
<path fill="#05E4FF" opacity="1.000000" stroke="none" 
	d="
M119.122437,59.000111 
	C116.987793,59.000114 115.335358,59.000114 113.409744,59.000114 
	C112.696571,56.496460 112.634178,54.949654 115.986069,54.963375 
	C134.958023,55.041058 153.930756,54.958801 172.902008,55.098274 
	C174.123901,55.107262 175.335495,56.517727 176.551880,57.276249 
	C176.323898,57.850868 176.095917,58.425488 175.867935,59.000107 
	C157.113510,59.000107 138.359070,59.000107 119.122437,59.000111 
z"/>
<path fill="#05E4FF" opacity="1.000000" stroke="none" 
	d="
M87.986664,57.000378 
	C87.157486,57.976448 86.330223,58.929310 85.498917,58.932846 
	C65.865967,59.016399 46.232590,58.997677 26.379868,58.997677 
	C25.650854,56.346539 25.704721,54.927612 29.039295,54.947414 
	C47.692215,55.058228 66.346252,54.977066 84.999405,55.066021 
	C85.997482,55.070782 86.991028,56.023495 87.986664,57.000378 
z"/>
<path fill="#22E7FF" opacity="1.000000" stroke="none" 
	d="
M61.325310,70.630463 
	C62.703606,70.320534 64.315163,70.320534 65.494934,70.320534 
	C66.484886,67.861359 67.304100,65.826332 68.259567,63.394249 
	C68.395813,62.997192 68.836899,62.987091 68.836899,62.987091 
	C69.871742,63.370411 71.001190,64.212769 71.918091,64.023804 
	C73.133690,63.773281 74.171906,62.125286 75.305992,62.103558 
	C82.390892,61.967819 89.481270,62.118046 96.297714,62.617409 
	C94.147766,63.123367 92.269943,63.185474 90.013657,63.187622 
	C89.380264,63.111343 89.125336,63.095028 88.510406,63.049931 
	C87.159508,63.698708 86.168602,64.376266 85.377594,64.917145 
	C84.329887,64.338890 82.998764,63.604206 81.588348,62.825760 
	C81.588348,65.745529 81.588348,67.881149 81.588348,69.818886 
	C83.478958,69.952660 85.219872,70.075844 86.959625,70.358902 
	C86.958466,70.518776 86.950653,70.838440 86.950653,70.838440 
	C84.458885,70.896973 81.967392,70.976540 79.475288,71.009857 
	C73.502823,71.089699 67.537331,69.381599 61.325310,70.630463 
M74.333206,66.528587 
	C74.333206,67.630554 74.333206,68.732521 74.333206,70.216911 
	C76.294891,70.118034 78.069695,70.028572 80.584213,69.901833 
	C78.930115,67.900017 77.955795,66.720879 76.962791,65.519127 
	C78.026321,65.121780 79.009010,64.754631 79.991699,64.387489 
	C79.791000,63.765381 79.590294,63.143276 79.389595,62.521172 
	C78.079849,64.829758 74.575722,59.981003 74.333206,66.528587 
z"/>
<path fill="#EAFDFF" opacity="1.000000" stroke="none" 
	d="
M156.166153,69.998520 
	C152.373489,70.332649 148.580841,70.666779 144.470612,70.572540 
	C146.473495,68.649239 148.956726,67.252167 148.248993,63.857243 
	C148.696411,64.249847 148.875748,64.561119 149.034637,65.224030 
	C149.181274,66.483192 149.348373,67.390739 149.515472,68.298279 
	C149.933167,68.203644 150.350876,68.109009 150.768585,68.014374 
	C150.527710,67.016006 150.286835,66.017639 150.037567,64.579887 
	C155.016556,63.888943 160.003983,63.637375 164.982925,63.572815 
	C164.969437,64.009712 164.979538,64.258995 164.611267,64.572876 
	C163.267410,66.226196 162.317047,67.814323 161.009979,69.998520 
	C160.058899,69.998520 158.112518,69.998520 156.166153,69.998520 
z"/>
<path fill="#D9FBFF" opacity="1.000000" stroke="none" 
	d="
M147.980927,63.775917 
	C148.956726,67.252167 146.473495,68.649239 144.077682,70.490021 
	C141.300522,70.894722 138.598755,70.953583 135.445831,70.579735 
	C135.328918,67.789047 135.663162,65.431076 136.366440,63.017639 
	C137.470779,63.724064 138.206070,64.485947 138.941376,65.247826 
	C139.484985,65.737831 140.028610,66.227829 140.572220,66.717827 
	C140.710892,66.321136 140.849548,65.924438 141.392487,65.097275 
	C141.880890,64.108986 141.965042,63.551167 142.049194,62.993347 
	C142.049179,62.993347 142.036636,63.041805 142.366547,63.253410 
	C144.457947,63.568645 146.219437,63.672279 147.980927,63.775917 
z"/>
<path fill="#DFFBFF" opacity="1.000000" stroke="none" 
	d="
M135.997406,63.073101 
	C135.663162,65.431076 135.328918,67.789047 135.001816,70.501495 
	C132.960876,70.906303 130.912811,70.956657 128.486603,70.552032 
	C128.392776,68.583153 128.677094,67.069244 128.722198,66.829079 
	C126.156113,65.186661 124.582375,64.179398 123.463623,63.077961 
	C127.944878,63.013565 131.971146,63.043331 135.997406,63.073101 
z"/>
<path fill="#05E4FF" opacity="1.000000" stroke="none" 
	d="
M136.366440,63.017639 
	C131.971146,63.043331 127.944878,63.013565 123.032196,63.041985 
	C120.423325,63.141087 118.700882,63.181995 116.578110,63.118347 
	C113.821152,63.299000 111.464508,63.584217 109.085007,63.884529 
	C109.062157,63.899624 109.107605,63.928356 108.843773,63.661652 
	C104.102264,62.574474 103.747467,62.698784 103.914642,65.407654 
	C103.981384,66.522247 104.031464,67.264503 103.975800,68.253448 
	C103.878792,69.012894 103.887512,69.525650 104.042305,70.232864 
	C104.188377,70.427322 104.475044,70.820312 104.475044,70.820312 
	C103.652344,70.201797 102.232857,69.675583 102.120209,68.947250 
	C101.798180,66.865105 102.006935,64.700867 102.006935,62.014076 
	C114.289452,62.014076 126.333084,61.984364 138.374557,62.131474 
	C138.818924,62.136898 139.242188,63.869961 139.308319,65.022865 
	C138.206070,64.485947 137.470779,63.724064 136.366440,63.017639 
z"/>
<path fill="#D9FBFF" opacity="1.000000" stroke="none" 
	d="
M116.978432,63.222908 
	C118.700882,63.181995 120.423325,63.141087 122.577209,63.136150 
	C124.582375,64.179398 126.156113,65.186661 128.722198,66.829079 
	C128.677094,67.069244 128.392776,68.583153 128.056320,70.463120 
	C127.340042,70.252983 126.750404,69.523499 125.986641,69.152313 
	C125.440926,68.887100 124.661545,69.102676 123.542023,69.567398 
	C122.091606,69.191833 121.086678,68.351288 120.079308,67.513672 
	C119.051758,66.659264 118.021820,65.807724 116.986923,64.666412 
	C116.980080,63.992908 116.979256,63.607906 116.978432,63.222908 
z"/>
<path fill="#DFFBFF" opacity="1.000000" stroke="none" 
	d="
M90.392113,63.247581 
	C92.269943,63.185474 94.147766,63.123367 96.429916,63.029411 
	C96.790298,65.253227 96.746368,67.508904 95.968803,69.949852 
	C93.789696,70.135132 92.344215,70.135132 91.101967,70.135132 
	C90.838127,67.575142 90.615120,65.411362 90.392113,63.247581 
z"/>
<path fill="#DFFBFF" opacity="1.000000" stroke="none" 
	d="
M165.004776,64.507668 
	C164.979538,64.258995 164.969437,64.009712 165.392532,63.391403 
	C167.874115,63.033913 169.937607,63.044842 172.001114,63.055771 
	C172.001114,63.055771 171.955002,63.043293 171.728851,63.344532 
	C171.945633,65.196861 172.388565,66.747955 172.831512,68.299042 
	C171.804626,69.190224 170.777740,70.081406 169.157501,70.644257 
	C167.479996,70.140686 166.395874,69.965439 165.622818,69.840485 
	C165.392014,67.848969 165.198395,66.178314 165.004776,64.507668 
z"/>
<path fill="#17E5FF" opacity="1.000000" stroke="none" 
	d="
M68.701508,62.577080 
	C68.836899,62.987091 68.395813,62.997192 68.175430,63.007462 
	C61.306595,63.009556 54.657494,62.948147 48.010139,63.029568 
	C46.287418,63.050667 44.570175,63.518921 42.690624,63.476837 
	C46.408077,62.782253 50.278328,62.187737 54.164341,62.055153 
	C58.958080,61.891594 63.764931,62.112373 68.701508,62.577080 
z"/>
<path fill="#05E4FF" opacity="1.000000" stroke="none" 
	d="
M171.838715,62.643913 
	C169.937607,63.044842 167.874115,63.033913 165.401001,63.204399 
	C160.003983,63.637375 155.016556,63.888943 149.782379,64.593483 
	C149.375458,64.988434 149.215271,64.930420 149.055099,64.872398 
	C148.875748,64.561119 148.696411,64.249847 148.248993,63.857239 
	C146.219437,63.672279 144.457947,63.568645 142.341782,63.257019 
	C142.625931,62.701786 143.265030,62.052151 143.903534,62.052746 
	C153.161179,62.061356 162.418747,62.157135 171.838715,62.643913 
z"/>
<path fill="#22E7FF" opacity="1.000000" stroke="none" 
	d="
M116.992935,64.954926 
	C118.021820,65.807724 119.051758,66.659264 120.079308,67.513672 
	C121.086678,68.351288 122.091606,69.191833 123.464584,69.939514 
	C119.828056,70.230713 115.824562,70.613487 111.398087,70.702591 
	C110.975105,70.408936 111.008224,69.980423 111.251923,70.049438 
	C111.662361,70.091743 111.829094,70.065025 112.402916,70.109482 
	C114.198601,70.089806 115.587204,69.998970 117.319069,69.885681 
	C116.190994,68.063942 115.330017,66.673538 114.399307,65.170532 
	C115.405151,65.086914 116.199043,65.020920 116.992935,64.954926 
z"/>
<path fill="#49EBFF" opacity="1.000000" stroke="none" 
	d="
M164.611267,64.572876 
	C165.198395,66.178314 165.392014,67.848969 165.622818,69.840485 
	C166.395874,69.965439 167.479996,70.140686 168.816162,70.573669 
	C164.844528,70.829872 160.620865,70.828331 156.281677,70.412659 
	C158.112518,69.998520 160.058899,69.998520 161.009979,69.998520 
	C162.317047,67.814323 163.267410,66.226196 164.611267,64.572876 
z"/>
<path fill="#49EBFF" opacity="1.000000" stroke="none" 
	d="
M90.013657,63.187622 
	C90.615120,65.411362 90.838127,67.575142 91.101967,70.135132 
	C92.344215,70.135132 93.789696,70.135132 95.637405,70.130142 
	C93.303947,70.411926 90.568253,70.698700 87.391609,70.911957 
	C86.950653,70.838440 86.958466,70.518776 87.303909,70.164322 
	C88.056374,67.566147 88.463387,65.322433 88.870407,63.078716 
	C89.125336,63.095028 89.380264,63.111343 90.013657,63.187622 
z"/>
<path fill="#05E4FF" opacity="1.000000" stroke="none" 
	d="
M172.905533,67.879684 
	C172.388565,66.747955 171.945633,65.196861 171.722916,63.321396 
	C172.288620,64.484787 172.634094,65.972557 172.905533,67.879684 
z"/>
<path fill="#05E4FF" opacity="1.000000" stroke="none" 
	d="
M111.008224,69.980423 
	C111.008224,69.980423 110.975105,70.408936 110.964493,70.623596 
	C110.062454,70.885811 109.171036,70.933357 107.975510,70.687012 
	C107.774513,70.259895 107.877617,70.126671 108.278862,69.943710 
	C109.045753,69.515770 109.514511,69.137558 110.252808,68.861282 
	C110.684296,69.302299 110.846260,69.641365 111.008224,69.980423 
z"/>
<path fill="#DFFBFF" opacity="1.000000" stroke="none" 
	d="
M107.980728,69.993439 
	C107.877617,70.126671 107.774513,70.259895 107.533371,70.607346 
	C106.612480,70.843925 105.829613,70.866295 104.760895,70.854485 
	C104.475044,70.820312 104.188377,70.427322 104.450897,70.205902 
	C105.802521,69.987465 106.891624,69.990456 107.980728,69.993439 
z"/>
<path fill="#17E5FF" opacity="1.000000" stroke="none" 
	d="
M56.084305,51.889359 
	C55.337051,51.937511 54.746677,51.794971 54.042984,51.364639 
	C54.073326,50.929138 54.216995,50.781425 54.790344,50.563034 
	C55.663895,50.766422 56.107765,51.040489 56.551636,51.314556 
	C56.551636,51.314556 56.241192,51.698658 56.084305,51.889359 
z"/>
<path fill="#05E4FF" opacity="1.000000" stroke="none" 
	d="
M141.732758,63.057068 
	C141.965042,63.551167 141.880890,64.108986 141.481934,64.796951 
	C141.250183,64.324997 141.333252,63.722893 141.732758,63.057068 
z"/>
<path fill="#EAFDFF" opacity="1.000000" stroke="none" 
	d="
M128.986801,49.331692 
	C134.595932,47.647301 130.145782,43.590885 131.213440,40.092846 
	C133.049408,40.092846 135.122345,39.947075 137.166565,40.127163 
	C140.199783,40.394382 141.425354,42.153267 141.035614,45.214653 
	C140.831787,46.815674 140.999680,48.464016 140.999680,51.244186 
	C139.802139,50.639454 138.368423,49.915459 136.519623,48.701721 
	C135.866486,48.219688 135.628433,48.227394 135.390396,48.235100 
	C135.579269,48.502579 135.768143,48.770058 135.957031,49.037529 
	C134.850830,53.070133 132.072845,50.766533 129.429535,50.423733 
	C128.986664,49.913216 128.985977,49.622456 128.986801,49.331692 
z"/>
<path fill="#F6FEFF" opacity="1.000000" stroke="none" 
	d="
M101.537888,42.992622 
	C102.848900,41.784397 104.184990,40.544319 105.986000,38.872726 
	C107.075684,41.873035 107.619400,43.370094 108.163124,44.867153 
	C108.662407,44.709801 109.161697,44.552448 109.660980,44.395096 
	C109.498703,43.101105 109.336426,41.807117 109.150986,40.328491 
	C110.887192,40.328491 112.325890,40.328491 113.569695,40.328491 
	C113.569695,43.797138 113.569695,47.050945 113.569695,50.905445 
	C112.560539,50.972046 111.032486,51.072895 109.935852,51.145267 
	C109.228737,49.502464 108.720451,48.321602 108.212173,47.140736 
	C107.631958,48.330563 107.051735,49.520386 106.370178,50.918015 
	C105.272202,50.918015 103.840889,50.918015 102.425484,50.918015 
	C102.425484,48.139778 102.425484,45.615665 101.985199,43.062546 
	C101.544922,43.033543 101.562965,42.960766 101.537888,42.992622 
z"/>
<path fill="#EEFDFF" opacity="1.000000" stroke="none" 
	d="
M128.745789,49.058243 
	C128.985977,49.622456 128.986664,49.913216 128.992050,50.421852 
	C126.944923,50.989639 124.289589,52.952839 123.856461,48.736145 
	C123.850655,48.679611 121.902367,48.522694 121.104004,48.911797 
	C119.583351,49.652935 118.238724,50.755222 116.821007,51.707561 
	C116.599693,51.284466 116.378380,50.861370 116.157066,50.438274 
	C117.239220,47.384876 118.321365,44.331474 119.821335,40.099140 
	C122.137207,39.121807 124.548096,40.144432 125.973427,44.000294 
	C126.593529,45.677811 127.647743,47.194859 128.745789,49.058243 
z"/>
<path fill="#E4FCFF" opacity="1.000000" stroke="none" 
	d="
M149.925110,44.104187 
	C148.462540,44.288006 146.111374,44.712688 146.022858,45.420364 
	C145.376648,50.587166 150.042160,47.880554 152.918655,49.335331 
	C150.420059,52.100594 147.937210,52.356728 145.399323,50.819706 
	C142.472809,49.047329 141.076950,45.938465 143.374069,43.289387 
	C144.861069,41.574547 148.040573,41.235569 150.544769,40.615723 
	C150.843307,40.541828 151.665329,42.582840 152.244690,43.643547 
	C151.524490,43.921059 150.804276,44.198566 149.925110,44.104187 
z"/>
<path fill="#DFFBFF" opacity="1.000000" stroke="none" 
	d="
M155.239136,45.969456 
	C154.903839,43.975342 154.565964,42.401600 154.141129,40.422852 
	C156.083694,40.422852 157.781998,40.422852 159.840652,40.422852 
	C159.484924,42.333572 158.945496,44.032036 158.916153,45.739258 
	C158.888992,47.319904 159.407547,48.909935 159.750061,50.862183 
	C157.964676,50.862183 156.268448,50.862183 154.228363,50.862183 
	C154.612854,49.156605 154.924713,47.773212 155.239136,45.969456 
z"/>
<path fill="#EAFDFF" opacity="1.000000" stroke="none" 
	d="
M56.911709,51.395401 
	C56.107765,51.040489 55.663895,50.766422 55.006699,50.342297 
	C52.466892,46.940617 51.920979,43.446877 55.750439,41.366753 
	C57.657055,40.331089 61.330090,40.296627 62.885342,41.505646 
	C64.403221,42.685600 65.469521,46.952255 64.528214,48.200806 
	C63.126801,50.059650 59.786827,50.456985 56.911709,51.395401 
z"/>
<path fill="#E4FCFF" opacity="1.000000" stroke="none" 
	d="
M66.626091,42.571274 
	C68.831604,41.626423 70.930809,40.371861 72.886711,40.565407 
	C75.836739,40.857334 74.661484,43.064388 74.250565,45.051872 
	C73.890678,46.792492 75.048729,48.953144 74.439262,50.494488 
	C74.096481,51.361374 71.487999,51.782749 69.979515,51.628662 
	C67.917061,51.417995 65.634979,50.910839 66.728012,47.581623 
	C67.180702,46.202789 66.578232,44.477531 66.626091,42.571274 
z"/>
<path fill="#EAFDFF" opacity="1.000000" stroke="none" 
	d="
M94.112442,47.239006 
	C92.207390,47.508389 89.500572,46.157413 89.442757,50.052780 
	C89.435204,50.562244 86.287659,51.025105 84.537758,51.525776 
	C84.537758,47.395386 84.537758,44.079266 84.537758,40.679935 
	C92.350952,38.843544 95.109100,40.460514 94.085251,46.843056 
	C94.203583,47.208229 94.094948,47.186440 94.112442,47.239006 
z"/>
<path fill="#DFFBFF" opacity="1.000000" stroke="none" 
	d="
M42.655098,50.232948 
	C42.249512,48.857235 42.093605,47.773819 41.761200,45.463909 
	C44.175209,47.209152 45.414978,48.105461 46.663612,49.008183 
	C49.066029,45.382732 49.051590,45.260468 45.345100,40.569271 
	C47.600895,40.361889 49.360546,40.200123 52.710888,39.892113 
	C51.572544,44.088169 51.194069,47.654385 49.527859,50.454266 
	C48.940090,51.441944 45.203625,50.555836 42.655098,50.232948 
z"/>
<path fill="#F6FEFF" opacity="1.000000" stroke="none" 
	d="
M77.900322,47.676849 
	C77.753761,45.170700 77.528618,43.085285 77.255638,40.556805 
	C78.728966,40.556805 80.336372,40.556805 81.619873,40.556805 
	C81.619873,43.971745 81.619873,47.150036 81.619873,50.665440 
	C80.269722,50.204643 76.248756,54.375004 77.900322,47.676849 
z"/>
<path fill="#E4FCFF" opacity="1.000000" stroke="none" 
	d="
M53.688850,65.940903 
	C53.719772,66.470764 53.594116,66.847221 53.468460,67.223679 
	C53.363827,67.121506 53.155014,66.995430 53.172047,66.921158 
	C53.260384,66.535995 53.406372,66.164055 53.688850,65.940903 
z"/>
<path fill="#E4FCFF" opacity="1.000000" stroke="none" 
	d="
M88.510406,63.049931 
	C88.463387,65.322433 88.056374,67.566147 87.305077,70.004440 
	C85.219872,70.075844 83.478958,69.952660 81.588348,69.818886 
	C81.588348,67.881149 81.588348,65.745529 81.588348,62.825760 
	C82.998764,63.604206 84.329887,64.338890 85.377594,64.917145 
	C86.168602,64.376266 87.159508,63.698708 88.510406,63.049931 
z"/>
<path fill="#DFFBFF" opacity="1.000000" stroke="none" 
	d="
M74.312027,66.080482 
	C74.575722,59.981003 78.079849,64.829758 79.389595,62.521172 
	C79.590294,63.143276 79.791000,63.765381 79.991699,64.387489 
	C79.009010,64.754631 78.026321,65.121780 76.962791,65.519127 
	C77.955795,66.720879 78.930115,67.900017 80.584213,69.901833 
	C78.069695,70.028572 76.294891,70.118034 74.333206,70.216911 
	C74.333206,68.732521 74.333206,67.630554 74.312027,66.080482 
z"/>
<path fill="#D9FBFF" opacity="1.000000" stroke="none" 
	d="
M149.034637,65.224030 
	C149.215271,64.930420 149.375458,64.988434 149.790802,65.032860 
	C150.286835,66.017639 150.527710,67.016006 150.768585,68.014374 
	C150.350876,68.109009 149.933167,68.203644 149.515472,68.298279 
	C149.348373,67.390739 149.181274,66.483192 149.034637,65.224030 
z"/>
<path fill="#EEFDFF" opacity="1.000000" stroke="none" 
	d="
M108.278862,69.943710 
	C106.891624,69.990456 105.802521,69.987465 104.304825,70.011444 
	C103.887512,69.525650 103.878792,69.012894 104.351746,68.239807 
	C106.258240,66.609451 107.683052,65.239441 109.107864,63.869431 
	C111.464508,63.584217 113.821152,63.299000 116.578110,63.118347 
	C116.979256,63.607906 116.980080,63.992908 116.986923,64.666412 
	C116.199043,65.020920 115.405151,65.086914 114.399307,65.170532 
	C115.330017,66.673538 116.190994,68.063942 117.319069,69.885681 
	C115.587204,69.998970 114.198601,70.089806 112.402206,69.715408 
	C111.846611,67.972229 111.698830,66.694305 111.551048,65.416374 
	C111.175293,65.438965 110.799538,65.461548 110.423790,65.484138 
	C110.276947,66.575874 110.130112,67.667603 109.983269,68.759338 
	C109.514511,69.137558 109.045753,69.515770 108.278862,69.943710 
z"/>
<path fill="#DFFBFF" opacity="1.000000" stroke="none" 
	d="
M109.085007,63.884529 
	C107.683052,65.239441 106.258240,66.609451 104.457481,67.993103 
	C104.031464,67.264503 103.981384,66.522247 104.294220,65.364799 
	C106.140625,64.609184 107.624115,64.268768 109.107605,63.928356 
	C109.107605,63.928356 109.062157,63.899624 109.085007,63.884529 
z"/>
<path fill="#EEFDFF" opacity="1.000000" stroke="none" 
	d="
M108.843773,63.661652 
	C107.624115,64.268768 106.140625,64.609184 104.277550,64.992462 
	C103.747467,62.698784 104.102264,62.574474 108.843773,63.661652 
z"/>
<path fill="#DFFBFF" opacity="1.000000" stroke="none" 
	d="
M110.252808,68.861282 
	C110.130112,67.667603 110.276947,66.575874 110.423790,65.484138 
	C110.799538,65.461548 111.175293,65.438965 111.551048,65.416374 
	C111.698830,66.694305 111.846611,67.972229 111.995117,69.644241 
	C111.829094,70.065025 111.662361,70.091743 111.251923,70.049438 
	C110.846260,69.641365 110.684296,69.302299 110.252808,68.861282 
z"/>
<path fill="#18E5FF" opacity="1.000000" stroke="none" 
	d="
M136.074280,48.934162 
	C135.768143,48.770058 135.579269,48.502579 135.390396,48.235100 
	C135.628433,48.227394 135.866486,48.219688 136.265656,48.418430 
	C136.426788,48.624878 136.191544,48.830791 136.074280,48.934162 
z"/>
</svg>